<svg width="285" height="505" fill="none" xmlns="http://www.w3.org/2000/svg"><path d="M0 81a2 2 0 012-2v19a2 2 0 01-2-2V81zm0 41a2 2 0 012-2v37a2 2 0 01-2-2v-33zm0 53a2 2 0 012-2v37a2 2 0 01-2-2v-33zm283-18a2 2 0 012 2v33a2 2 0 01-2 2v-37z" fill="#606571"/><rect x="9.5" y="7.5" width="266" height="490" rx="33.5" stroke="#202124" stroke-width="15"/><path d="M73 2h140v17c0 9.389-7.611 17-17 17H90c-9.389 0-17-7.611-17-17V2z" fill="#131517"/><rect x="8" y="6" width="269" height="493" rx="35" stroke="#606571" stroke-width="12"/><rect x="5" y="3" width="275" height="499" rx="38" stroke="#2C383F" stroke-width="6"/></svg>