<svg width="83" height="83" fill="none" xmlns="http://www.w3.org/2000/svg"><path d="M56.855 3.476l-.934 1.4L41.19 26.093l-12.97 3.839-.052.052h-.052c-1.64.616-2.911 1.692-3.89 3.06l-.052.052v.052L12.969 50.422l-.415-1.348L1.66 52.342l-1.556.519.467 1.556 7.47 25.055.467 1.609 1.608-.467L19.4 77.76l1.608-.467-.518-1.556-.934-3.165 13.02-2.905c4.001-.908 7.646-3.067 10.22-6.38l.622-.779 6.277 4.41 1.349.985.934-1.4 30.087-43.472.934-1.348-1.4-.986L58.203 4.461l-1.349-.985zm.83 4.616l20.698 14.422-11.88 17.17c1.525-4.856-.81-10.673-5.757-14.11-.013-.006.013-.045 0-.052-.013-.012-.04.013-.052 0-2.886-2.036-6.316-2.885-9.442-2.593-1.79.168-3.469.739-4.928 1.66L57.685 8.092zm6.951 9.857a2.807 2.807 0 00-2.334 1.245 2.783 2.783 0 00.726 3.89 2.845 2.845 0 003.943-.726 2.783 2.783 0 00-.727-3.89 2.959 2.959 0 00-1.608-.52zm-12.968 8.248c2.295-.208 4.856.421 7.106 2.023l.052.052c4.701 3.236 6.102 8.721 3.735 12.139h-.052c-1.193 1.841-3.183 2.84-5.654 2.956.084-1.9-.59-3.793-2.075-5.187-.013-.013-.039.013-.052 0-2.263-2.237-5.79-2.613-8.404-.882-1.582-2.847-1.698-5.94-.155-8.144 1.18-1.706 3.203-2.75 5.498-2.957zM38.231 30.45l-7.937 12.502-.882 1.452 1.453.83 5.29 3.164.986.623.934-.778 8.404-6.796a1.69 1.69 0 00.986-.83l.415-.311c1.322-1.102 3.346-1.012 4.565.207v.052h.052c1.361 1.245 1.484 3.19.31 4.72L40.204 61.213c-2.075 2.665-5.045 4.488-8.352 5.24L18.624 69.41l-4.669-15.667.52-.207.57-.207.311-.467 11.568-17.845c.655-.921 1.33-1.485 2.283-1.868.038-.013.064-.039.103-.052l8.923-2.645zm3.787.207c-.642 2.886.006 6.018 1.66 8.767l-6.796 5.55-2.853-1.711 7.989-12.606zm21.165 13.85l-12.969 18.78-4.773-3.372 9.96-12.554v-.052h.052a6.3 6.3 0 00.415-.623c2.698.078 5.298-.616 7.315-2.178zm-52.86 8.664l6.535 21.943-6.12 1.868L4.201 55.09l6.121-1.92z" fill="url(#paint0_linear_51_1164)"/><defs><linearGradient id="paint0_linear_51_1164" x1="41.552" y1="3.476" x2="41.552" y2="81.081" gradientUnits="userSpaceOnUse"><stop stop-color="#FFC619"/><stop offset=".495" stop-color="#F69020"/><stop offset="1" stop-color="#EA422A"/></linearGradient></defs></svg>