<svg width="48" height="49" fill="none" xmlns="http://www.w3.org/2000/svg"><g clip-path="url(#clip0_51_1006)"><path d="M7 24.895c0 9.415 7.6 17.027 17 17.027s17-7.612 17-17.026c0-9.415-7.6-17.027-17-17.027S7 15.48 7 24.895z" fill="#131517"/><path d="M24 44.927c-11 0-20-9.014-20-20.031C4 13.878 13 4.864 24 4.864c4.7 0 9.3 1.703 12.9 4.808l-2.6 3.004C31.5 10.172 27.8 8.87 24 8.87c-8.8 0-16 7.212-16 16.026 0 8.813 7.2 16.025 16 16.025v4.006z" fill="#606571"/><path d="M27 12.877l-8-6.01 8-6.01v12.02z" fill="#FFC619"/><path d="M11 24.896c0 .6-.4 1.001-1 1.001H7v-2.003h3c.6 0 1 .4 1 1.002zm13 13.02c-.6 0-1 .4-1 1.002v3.004h2v-3.004c0-.601-.4-1.002-1-1.002zm14-14.022c-.6 0-1 .4-1 1.002 0 .6.4 1.001 1 1.001h3v-2.003h-3z" fill="#fff"/><path d="M24 44.927c-11 0-20-9.014-20-20.031 0-4.708 1.7-9.315 4.8-12.92l3 2.603C9.3 17.384 8 21.09 8 24.896c0 8.813 7.2 16.025 16 16.025s16-7.212 16-16.025C40 16.082 32.8 8.87 24 8.87V4.864c11 0 20 9.014 20 20.032 0 11.017-9 20.031-20 20.031z" fill="#FFC619"/><path d="M23 30.905h-8v-1.803l3.8-4.006c.9-1.102 1.4-1.903 1.4-2.504 0-.5-.1-.901-.3-1.202-.2-.3-.5-.4-1-.4-.4 0-.8.2-1 .5-.3.4-.4.802-.4 1.302H15c0-.7.2-1.402.5-2.003.4-.6.9-1.102 1.5-1.402.6-.3 1.1-.5 1.9-.5 1.3 0 2.3.3 3 .9.7.602 1 1.403 1 2.505 0 .5-.1.9-.3 1.402-.2.4-.4.901-.8 1.402-.4.5-1 1.102-1.8 1.903l-1.4 1.903H23v2.003zm8.8-4.006H33v2.003h-1.2v2.003H29v-2.003h-4.6l-.2-1.603 4.8-8.413h2.8V26.9zm-5 0H29v-4.407l-.2.3-2 4.107z" fill="#fff"/></g><defs><clipPath id="clip0_51_1006"><path fill="#fff" transform="translate(0 .858)" d="M0 0h48v48.075H0z"/></clipPath></defs></svg>