<svg width="67" height="68" fill="none" xmlns="http://www.w3.org/2000/svg"><path d="M56.908 3.109a6.342 6.342 0 00-4.502 1.856l-2.434 2.437a1.343 1.343 0 00-.12 1.757l-2.847 2.852c-5.805 5.814-10.647 7.575-15.51 9.2-4.857 1.626-9.82 3.11-14.918 8.22L4.282 41.742c-2.126 2.129-2.126 5.62 0 7.754l6.857 6.868 6.857 6.863c2.13 2.133 5.616 2.133 7.741 0l12.29-12.31c5.104-5.106 6.585-10.076 8.203-14.941 1.623-4.87 3.381-9.72 9.192-15.534l2.847-2.852a1.338 1.338 0 001.754-.12l2.433-2.439c2.476-2.48 2.476-6.537 0-9.017L61.41 4.965a6.329 6.329 0 00-4.502-1.856zm0 2.663a3.72 3.72 0 012.612 1.09l1.042 1.049a3.678 3.678 0 010 5.222l-1.476 1.478-3.13-3.135a1.17 1.17 0 00-.121-.105l-3.015-3.02 1.476-1.489a3.698 3.698 0 012.612-1.09zm-23.408.01a1.344 1.344 0 000 2.684 1.343 1.343 0 000-2.684zm8.04 4.027c-.738 0-1.34.603-1.34 1.342 0 .739.602 1.342 1.34 1.342a1.343 1.343 0 000-2.684zm10.197 1.258l4.627 4.634-2.843 2.842a39.178 39.178 0 00-4.815 5.835l-5.632-5.641a39.148 39.148 0 005.825-4.823l2.837-2.847zm-10.998 9.122l6.517 6.527c-1.147 2.034-1.984 3.99-2.675 5.867l-7.27-2.433-2.43-7.282c1.875-.692 3.827-1.53 5.858-2.679zm-8.385 3.565l2.627 7.885c.131.398.445.713.843.844l7.873 2.632c-.006 0-.006.005-.006.005-1.638 4.928-2.873 9.211-7.553 13.903l-12.29 12.31a2.784 2.784 0 01-3.957 0L6.175 47.597a2.794 2.794 0 010-3.963l12.29-12.31c4.685-4.687 8.962-5.924 13.882-7.565 0 0 .006 0 .006-.005zm26.606.818a1.343 1.343 0 000 2.684 1.343 1.343 0 000-2.684zm4.02 5.368a1.343 1.343 0 000 2.684 1.343 1.343 0 000-2.684zm-6.7 2.684a1.344 1.344 0 000 2.684 1.343 1.343 0 000-2.684zm-25.46 1.343a2.68 2.68 0 00-2.68 2.684 2.68 2.68 0 105.36 0 2.68 2.68 0 00-2.68-2.684zm-10.312.76c-.35.005-.68.147-.931.393l-8.438 8.456a1.35 1.35 0 000 1.903l10.866 10.884a1.354 1.354 0 001.9 0l8.438-8.456a1.343 1.343 0 000-1.898L21.476 35.12a1.387 1.387 0 00-.968-.393zm.016 3.245l8.977 8.986-6.548 6.553-8.972-8.98 6.543-6.559z" fill="url(#paint0_linear_51_977)"/><defs><linearGradient id="paint0_linear_51_977" x1="33.504" y1="3.109" x2="33.504" y2="64.826" gradientUnits="userSpaceOnUse"><stop stop-color="#FFC619"/><stop offset=".521" stop-color="#F69020"/><stop offset="1" stop-color="#EA422A"/></linearGradient></defs></svg>