<svg width="68" height="69" fill="none" xmlns="http://www.w3.org/2000/svg"><g clip-path="url(#clip0_51_983)"><path d="M46.58 3.266l-.765 1.15-12.07 17.41-10.625 3.149-.043.043h-.042c-1.344.505-2.385 1.388-3.188 2.511l-.042.043v.042l-9.18 14.175-.34-1.107-8.925 2.682-1.275.425.382 1.277 6.12 20.56.383 1.32 1.317-.383 7.608-2.341 1.317-.383-.424-1.277-.765-2.597L26.69 57.58c3.278-.745 6.263-2.517 8.372-5.236l.51-.638 5.143 3.618 1.105.809.765-1.15 24.65-35.67.765-1.107-1.147-.809L47.685 4.075l-1.105-.809zm.68 3.788l16.958 11.834-9.733 14.09c1.248-3.986-.664-8.759-4.718-11.579-.01-.005.011-.037 0-.042-.01-.01-.031.01-.042 0-2.364-1.67-5.174-2.368-7.735-2.128a9.139 9.139 0 00-4.038 1.362L47.26 7.054zm5.695 8.088a2.299 2.299 0 00-1.913 1.022 2.286 2.286 0 00.596 3.192 2.329 2.329 0 003.23-.596 2.286 2.286 0 00-.596-3.192 2.42 2.42 0 00-1.317-.426zM42.33 21.91c1.88-.17 3.979.346 5.823 1.66l.042.043c3.852 2.655 4.999 7.156 3.06 9.96h-.043c-.977 1.512-2.608 2.331-4.632 2.427.069-1.56-.483-3.113-1.7-4.257-.01-.01-.032.01-.043 0-1.854-1.836-4.744-2.144-6.885-.723-1.296-2.336-1.391-4.874-.127-6.683.967-1.4 2.624-2.256 4.505-2.427zM31.323 25.4L24.82 35.66l-.723 1.191 1.19.681 4.335 2.597.808.51.765-.638 6.885-5.576a1.39 1.39 0 00.808-.681l.34-.256c1.083-.904 2.74-.83 3.74.17v.043h.042c1.116 1.022 1.217 2.618.255 3.874L32.937 50.643c-1.7 2.187-4.133 3.682-6.842 4.299l-10.837 2.426-3.825-12.855.425-.17.467-.17.255-.384 9.478-14.642c.536-.756 1.088-1.219 1.87-1.533.031-.01.053-.032.084-.042l7.31-2.171zm3.102.17c-.526 2.369.005 4.939 1.36 7.195l-5.567 4.554-2.338-1.404 6.545-10.344zm17.34 11.366L41.14 52.346l-3.91-2.767 8.16-10.302v-.042h.042a5.34 5.34 0 00.34-.51c2.21.063 4.34-.506 5.993-1.789zM8.457 44.045l5.355 18.006-5.015 1.532L3.442 45.62l5.015-1.575z" fill="url(#paint0_linear_51_983)"/></g><defs><linearGradient id="paint0_linear_51_983" x1="34.042" y1="3.266" x2="34.042" y2="66.946" gradientUnits="userSpaceOnUse"><stop stop-color="#FFC619"/><stop offset=".521" stop-color="#F69020"/><stop offset="1" stop-color="#EA422A"/></linearGradient><clipPath id="clip0_51_983"><path fill="#fff" transform="translate(0 .414)" d="M0 0h68v68.107H0z"/></clipPath></defs></svg>