<svg width="50" height="50" fill="none" xmlns="http://www.w3.org/2000/svg"><path d="M25 12C11.67 12 1.24 24.35 1.24 24.35a1 1 0 000 1.3S11.67 38 25 38c13.33 0 23.76-12.35 23.76-12.35a1 1 0 000-1.3S38.33 12 25 12zm0 2c2.666 0 5.212.553 7.568 1.404C34.14 17.208 35 19.394 35 22c0 5.564-4.436 10-10 10-5.565 0-10-4.436-10-10 0-2.47.953-4.784 2.443-6.6C19.796 14.552 22.338 14 25 14zm-10.807 2.81A12.08 12.08 0 0013 22c0 6.636 5.364 12 12 12 6.635 0 12-5.364 12-12 0-1.866-.4-3.6-1.131-5.158 5.66 2.878 9.718 7.055 10.736 8.158C45.011 26.726 35.992 36 25 36S4.989 26.726 3.394 25c1.023-1.107 5.108-5.31 10.8-8.19zM25 17a5 5 0 100 10 5 5 0 000-10z" fill="#fff"/></svg>