<svg width="70" height="71" fill="none" xmlns="http://www.w3.org/2000/svg"><path d="M47.6 1.729c-8.422 0-15.324 6.808-15.488 15.205-.809 1.276-11.544 18.223-19.993 26.685l.043.044c-.114.088-.525.329-.787 1.008-.3.778-.06 2.087.787 2.936l1.97 1.972-2.363 2.366C9.35 54.365 8.274 57.11 8.356 59.7c.082 2.59 1.242 4.968 3.019 6.66 3.55 3.385 9.75 4.168 14.35-.438L44.93 46.687c3.735-3.741 7.82-2.97 10.325-.526 1.252 1.221 2.062 2.875 2.1 4.645.038 1.769-.634 3.702-2.581 5.652l-8.881 8.895a1.49 1.49 0 000 2.104c.58.58 1.52.58 2.1 0l8.837-8.895c2.417-2.421 3.511-5.198 3.456-7.8-.054-2.602-1.214-4.99-2.975-6.705a9.95 9.95 0 00-6.78-2.804c-2.588-.033-5.3.97-7.657 3.33L23.669 63.82c-3.588 3.593-7.7 2.815-10.238.394-1.269-1.21-2.089-2.86-2.144-4.6-.054-1.743.591-3.66 2.538-5.61l.131-.087 2.231-2.235 1.05 1.008c.837.838 1.991 1.156 2.8.92.706-.203.952-.668 1.05-.789l.088.088c8.236-8.255 25.451-19.335 26.731-20.157 8.39-.164 15.181-7.071 15.181-15.512 0-8.539-6.967-15.51-15.487-15.51zm0 2.98A12.494 12.494 0 0160.112 17.24a12.49 12.49 0 01-2.406 7.406l-17.5-17.528a12.442 12.442 0 017.394-2.41zm-9.538 4.425l17.675 17.659c-2.182 1.868-5.025 2.98-8.137 2.98A12.488 12.488 0 0135.087 17.24c0-3.105 1.121-5.92 2.975-8.106zm-5.38 12.181c1.448 5.297 5.637 9.493 10.937 10.911-5.704 3.769-17.588 11.859-24.325 18.58-.022-.028-.017-.017-.088-.088l-5.075-5.127c6.847-6.874 14.837-18.585 18.55-24.276zm-.22 9.29a1.69 1.69 0 00-1.18.482L27.518 34.9a1.645 1.645 0 000 2.323l.13.131a1.64 1.64 0 002.32 0l3.806-3.812a1.65 1.65 0 000-2.322l-.175-.132a1.59 1.59 0 00-1.138-.482z" fill="url(#paint0_linear_51_971)"/><defs><linearGradient id="paint0_linear_51_971" x1="35.72" y1="1.729" x2="35.72" y2="69.14" gradientUnits="userSpaceOnUse"><stop stop-color="#FFC619"/><stop offset=".521" stop-color="#F69020"/><stop offset="1" stop-color="#EA422A"/></linearGradient></defs></svg>