<svg width="68" height="69" fill="none" xmlns="http://www.w3.org/2000/svg"><path d="M42.84 2.576l-.962.963-4.361 4.368 5.323 5.332 5.323-5.332-5.323-5.331zm-17 3.288a1.36 1.36 0 00-1.36 1.362v6.81a1.364 1.364 0 001.36 1.363h1.36c1.626 0 1.98.49 2.327 1.272s.393 1.957.393 2.814c0 1.113-.135 2.282-.324 3.406-1.196-.422-2.343-.674-3.405-.681-1.201-.009-2.396.329-3.249 1.184-.364.364-.608.8-.797 1.26l-.024-.007L7.174 62.595l39.241-13.456-.008-.024c.504-.19.978-.453 1.37-.846 1.018-1.02 1.294-2.488 1.143-3.956-.095-.926-.363-1.904-.749-2.919a56.791 56.791 0 013.509-.114c1.939 0 3.773.234 4.965.649.595.207 1.015.46 1.219.654.204.194.215.25.215.4v1.02a1.364 1.364 0 001.36 1.363h5.84a1.36 1.36 0 001.36-1.402s-.04-1.679-.039-1.697v-.003c.025-3.092-1.92-5.489-4.319-6.962-2.4-1.474-5.311-2.195-7.91-2.195-4.302 0-7.501 1.117-9.643 2.224a39.927 39.927 0 00-2.23-2.764c.484-.155.977-.3 1.452-.429.958-.26 1.864-.472 2.569-.63.705-.158 1.094-.226 1.448-.325 1.097-.308 2.596-.684 3.939-1.583 1.342-.898 2.494-2.513 2.494-4.666 0-.59-.285-.917-.473-1.362h.473c2.907 0 5.44-2.351 5.44-5.449V16.25s.01-.185.138-.393c.128-.208.23-.458 1.222-.458h1.36a1.36 1.36 0 001.36-1.362V8.59a1.363 1.363 0 00-1.36-1.362h-2.205c-3.614-.003-5.847 1.673-7.041 3.267-.886 1.181-1.159 2.641-1.368 3.895-.092.55-.074.609-.115 1.008h-.151c-2.342 0-4.178.85-5.294 2.192-1.116 1.342-1.506 3.03-1.506 4.619v1.849c-2.23.736-4.782 1.931-6.978 4.012-1.295-1.103-2.581-2.088-3.844-2.91 1.394-2.463 2.662-5.784 2.662-9.762 0-2.346-.776-4.715-2.401-6.529-1.625-1.814-4.115-3.006-7.22-3.006H25.84zm17 .564l1.477 1.48-1.477 1.478-1.477-1.479 1.477-1.479zM14.28 8.024l-.962.963-4.361 4.369 5.323 5.331 5.323-5.331-5.323-5.332zm12.92.583c2.372.027 3.992.853 5.095 2.083C33.415 11.941 34 13.66 34 15.4c0 2.835-.825 5.149-1.785 7.142.153-1.044.425-1.967.425-3.057 0-.857.046-2.407-.627-3.921-.672-1.514-2.359-2.89-4.813-2.89V8.608zm33.153 1.346h.847v2.722c-1.728 0-2.986.857-3.538 1.756-.552.898-.542 1.82-.542 1.82v1.872c0 1.67-1.207 2.725-2.72 2.725h-2.72a1.358 1.358 0 00-1.358 1.442c.015.248.097.487.237.691l.114.144.019.021.037.04.125.146c.104.126.242.303.374.506.266.405.452.913.452 1.096 0 1.304-.462 1.848-1.286 2.4-.824.551-2.046.913-3.16 1.226.044-.012-.583.127-1.31.29-.727.163-1.668.385-2.683.66-1.558.422-3.109 1.1-4.547 1.822 2.277-2.838 5.404-4.382 7.912-5.086a1.36 1.36 0 00.994-1.312V22.21c0-1.135.29-2.172.874-2.873.583-.702 1.468-1.214 3.206-1.214h1.36a1.359 1.359 0 001.357-1.29s.05-.907.231-1.993c.182-1.086.59-2.352.858-2.71h.003c.846-1.13 2.011-2.18 4.864-2.177zM14.28 11.877l1.477 1.479-1.477 1.479-1.477-1.48 1.477-1.478zm47.6 11.695l-3.4 3.405 3.4 3.406 3.397-3.406-3.397-3.405zM8.84 24.934l-3.4 3.405 3.4 3.406 3.397-3.406-3.397-3.405zm17.33 0c.712.005 1.697.266 2.828.724-.389 1.487-.763 2.583-.879 2.934a1.364 1.364 0 001.379 1.786c.297-.019.58-.135.804-.33.191-.167.525-.479 1.132-1.171a22.6 22.6 0 001.1-1.373 33.124 33.124 0 013.575 2.62c-.176.241-.36.468-.526.727l-2.725 4.243a1.363 1.363 0 001.032 2.09c.312.027.624-.055.883-.233l4.09-2.828c.24-.166.554-.337.909-.508a38.573 38.573 0 012.64 3.155c-.434.335-.774.63-.84.695l-.002.002-3.086 3.054a1.363 1.363 0 001.445 2.24s1.785-.678 5.405-1.117c.5 1.14.801 2.162.882 2.948.1.977-.093 1.482-.361 1.75a1.2 1.2 0 01-.444.261l-.138.048c-.241.063-.546.093-.95.07-.85-.051-2.018-.37-3.34-.972-2.644-1.203-5.896-3.503-8.962-6.574-3.066-3.071-5.363-6.328-6.564-8.976-.6-1.324-.918-2.497-.97-3.347-.024-.422.01-.742.078-.987.008-.028.02-.048.03-.074.068-.205.16-.36.27-.471.224-.224.59-.391 1.304-.386zm-3.48 5.693c.094.233.182.463.29.7 1.388 3.063 3.857 6.508 7.118 9.774 3.26 3.267 6.7 5.74 9.759 7.13.123.056.242.1.364.152l-28.356 9.724 10.825-27.48zm31.68 5.204c2.072 0 4.612.64 6.49 1.793 1.878 1.154 3.036 2.65 3.02 4.616-.001.105.005.236.008.402h-3.24c-.106-.775-.386-1.536-.912-2.035-.613-.583-1.368-.96-2.202-1.25-1.668-.58-3.713-.802-5.854-.802-3.5 0-5.895.36-7.971.7.311-.298 3.666-3.424 10.662-3.424zm-2.01 15.782l-.962.963-4.361 4.368 5.323 5.332 5.323-5.332-5.323-5.331zm0 3.852l1.477 1.48-1.477 1.478-1.477-1.479 1.477-1.479z" fill="url(#paint0_linear_51_989)"/><defs><linearGradient id="paint0_linear_51_989" x1="36.04" y1="2.576" x2="36.04" y2="62.595" gradientUnits="userSpaceOnUse"><stop stop-color="#FFC619"/><stop offset=".521" stop-color="#F69020"/><stop offset="1" stop-color="#EA422A"/></linearGradient></defs></svg>