<svg width="48" height="49" viewBox="0 0 48 49" fill="none" xmlns="http://www.w3.org/2000/svg">
<g clip-path="url(#clip0_51_1006)">
<path d="M7 24.8955C7 34.3103 14.6 41.9223 24 41.9223C33.4 41.9223 41 34.3103 41 24.8955C41 15.4808 33.4 7.86884 24 7.86884C14.6 7.86884 7 15.4808 7 24.8955Z" fill="#131517"/>
<path d="M24 44.927C13 44.927 4 35.9128 4 24.8956C4 13.8783 13 4.86414 24 4.86414C28.7 4.86414 33.3 6.56681 36.9 9.67168L34.3 12.6764C31.5 10.1725 27.8 8.87042 24 8.87042C15.2 8.87042 8 16.0817 8 24.8956C8 33.7094 15.2 40.9207 24 40.9207V44.927Z" fill="#606571"/>
<path d="M27 12.8767L19 6.86728L27 0.857849V12.8767Z" fill="#FFC619"/>
<path d="M11 24.8956C11 25.4965 10.6 25.8971 10 25.8971H7V23.894H10C10.6 23.894 11 24.2946 11 24.8956ZM24 37.916C23.4 37.916 23 38.3166 23 38.9176V41.9223H25V38.9176C25 38.3166 24.6 37.916 24 37.916ZM38 23.894C37.4 23.894 37 24.2946 37 24.8956C37 25.4965 37.4 25.8971 38 25.8971H41V23.894H38Z" fill="white"/>
<path d="M24 44.927C13 44.927 4 35.9128 4 24.8956C4 20.1882 5.7 15.5809 8.8 11.9753L11.8 14.5794C9.3 17.3838 8 21.0896 8 24.8956C8 33.7094 15.2 40.9207 24 40.9207C32.8 40.9207 40 33.7094 40 24.8956C40 16.0817 32.8 8.87042 24 8.87042V4.86414C35 4.86414 44 13.8783 44 24.8956C44 35.9128 35 44.927 24 44.927Z" fill="#FFC619"/>
<path d="M23 30.905H15V29.1022L18.8 25.0959C19.7 23.9942 20.2 23.1929 20.2 22.592C20.2 22.0912 20.1 21.6905 19.9 21.3901C19.7 21.0896 19.4 20.9894 18.9 20.9894C18.5 20.9894 18.1 21.1898 17.9 21.4902C17.6 21.8909 17.5 22.2915 17.5 22.7923H15C15 22.0912 15.2 21.3901 15.5 20.7891C15.9 20.1882 16.4 19.6874 17 19.3869C17.6 19.0865 18.1 18.8861 18.9 18.8861C20.2 18.8861 21.2 19.1866 21.9 19.7876C22.6 20.3885 22.9 21.1898 22.9 22.2915C22.9 22.7923 22.8 23.1929 22.6 23.6937C22.4 24.0943 22.2 24.5951 21.8 25.0959C21.4 25.5967 20.8 26.1976 20 26.9989L18.6 28.9018H23V30.905ZM31.8 26.8987H33V28.9018H31.8V30.905H29V28.9018H24.4L24.2 27.2993L29 18.8861H31.8V26.8987ZM26.8 26.8987H29V22.4918L28.8 22.7923L26.8 26.8987Z" fill="white"/>
</g>
<defs>
<clipPath id="clip0_51_1006">
<rect width="48" height="48.0754" fill="white" transform="translate(0 0.857849)"/>
</clipPath>
</defs>
</svg>
