<svg width="67" height="68" viewBox="0 0 67 68" fill="none" xmlns="http://www.w3.org/2000/svg">
<path d="M56.908 3.10868C55.2749 3.10868 53.6418 3.72731 52.4065 4.96456L49.9725 7.40237C49.5014 7.8742 49.449 8.62389 49.8521 9.15864L47.0046 12.0106C41.1997 17.8247 36.3579 19.5862 31.4951 21.2114C26.6376 22.8366 21.6754 24.3202 16.5772 29.4318L4.28161 41.7414C2.15645 43.8699 2.15645 47.3615 4.28161 49.4952L11.1386 56.363L17.9957 63.2256C20.1261 65.3593 23.6122 65.3593 25.7373 63.2256L38.0276 50.9159C43.1311 45.8096 44.6125 40.8397 46.2299 35.9745C47.8526 31.1042 49.6113 26.2548 55.4215 20.4407L58.269 17.5887C58.8029 17.9924 59.5514 17.94 60.0225 17.4682L62.4565 15.0303C64.9323 12.5506 64.9323 8.49283 62.4565 6.01308L61.4096 4.96456C60.169 3.72731 58.5411 3.10344 56.908 3.10868ZM56.908 5.77192C57.8502 5.77716 58.7924 6.1389 59.52 6.86238L60.5616 7.9109C62.0115 9.3631 62.0115 11.6803 60.5616 13.1325L59.0855 14.6109L55.9554 11.4759C55.9187 11.4392 55.8768 11.4025 55.835 11.371L52.82 8.35128L54.2961 6.86238C55.0236 6.1389 55.9658 5.77192 56.908 5.77192ZM33.4999 5.7824C32.7618 5.7824 32.1599 6.3853 32.1599 7.12451C32.1599 7.86372 32.7618 8.46661 33.4999 8.46661C34.2379 8.46661 34.8399 7.86372 34.8399 7.12451C34.8399 6.3853 34.2379 5.7824 33.4999 5.7824ZM41.5399 9.80872C40.8018 9.80872 40.1999 10.4116 40.1999 11.1508C40.1999 11.89 40.8018 12.4929 41.5399 12.4929C42.2779 12.4929 42.8799 11.89 42.8799 11.1508C42.8799 10.4116 42.2779 9.80872 41.5399 9.80872ZM51.7365 11.0669L56.3636 15.7014L53.5214 18.5429C51.5114 20.5613 49.9725 22.4958 48.7058 24.3779L43.0736 18.7369C44.9527 17.4682 46.8842 15.9268 48.8994 13.9137L51.7365 11.0669ZM40.739 20.1891L47.2558 26.7161C46.1095 28.7502 45.272 30.7057 44.5811 32.5826L37.3105 30.15L34.8818 22.868C36.7557 22.176 38.7081 21.3372 40.739 20.1891ZM32.3536 23.754L34.9812 31.6389C35.1121 32.0373 35.4261 32.3519 35.824 32.483L43.6965 35.1147C43.6912 35.1147 43.6912 35.12 43.6912 35.12C42.0529 40.048 40.8176 44.3312 36.138 49.0234L23.8477 61.333C22.7433 62.4339 20.995 62.4339 19.8905 61.333L6.17646 47.5974C5.07724 46.4912 5.07724 44.7402 6.17646 43.634L18.4668 31.3243C23.1515 26.6375 27.428 25.4002 32.3483 23.7593C32.3483 23.7593 32.3536 23.7593 32.3536 23.754ZM58.9599 24.5719C58.2218 24.5719 57.6199 25.1748 57.6199 25.914C57.6199 26.6532 58.2218 27.2561 58.9599 27.2561C59.6979 27.2561 60.2999 26.6532 60.2999 25.914C60.2999 25.1748 59.6979 24.5719 58.9599 24.5719ZM62.9799 29.9403C62.2418 29.9403 61.6399 30.5432 61.6399 31.2824C61.6399 32.0216 62.2418 32.6245 62.9799 32.6245C63.7179 32.6245 64.3199 32.0216 64.3199 31.2824C64.3199 30.5432 63.7179 29.9403 62.9799 29.9403ZM56.2799 32.6245C55.5418 32.6245 54.9399 33.2274 54.9399 33.9666C54.9399 34.7058 55.5418 35.3087 56.2799 35.3087C57.0179 35.3087 57.6199 34.7058 57.6199 33.9666C57.6199 33.2274 57.0179 32.6245 56.2799 32.6245ZM30.8199 33.9666C29.3386 33.9666 28.1399 35.1672 28.1399 36.6508C28.1399 38.1345 29.3386 39.335 30.8199 39.335C32.3012 39.335 33.4999 38.1345 33.4999 36.6508C33.4999 35.1672 32.3012 33.9666 30.8199 33.9666ZM20.5082 34.7268C20.1575 34.732 19.8277 34.8736 19.5765 35.12L11.1386 43.5763C10.6152 44.1006 10.6152 44.9551 11.1386 45.4794L22.0052 56.363C22.5286 56.882 23.3818 56.882 23.9053 56.363L32.3431 47.9067C32.8665 47.3824 32.8665 46.5331 32.3431 46.0089L21.4765 35.12C21.22 34.8683 20.8693 34.7268 20.5082 34.7268ZM20.5239 37.972L29.5008 46.9578L22.9526 53.511L13.9809 44.5305L20.5239 37.972Z" fill="url(#paint0_linear_51_977)"/>
<defs>
<linearGradient id="paint0_linear_51_977" x1="33.5038" y1="3.10865" x2="33.5038" y2="64.8259" gradientUnits="userSpaceOnUse">
<stop stop-color="#FFC619"/>
<stop offset="0.520833" stop-color="#F69020"/>
<stop offset="1" stop-color="#EA422A"/>
</linearGradient>
</defs>
</svg>
