<svg width="68" height="69" viewBox="0 0 68 69" fill="none" xmlns="http://www.w3.org/2000/svg">
<g clip-path="url(#clip0_51_983)">
<path d="M46.58 3.26596L45.815 4.41526L33.745 21.8251L23.12 24.975L23.0775 25.0176H23.035C21.6909 25.5231 20.6496 26.4063 19.8475 27.529L19.805 27.5716V27.6141L10.625 41.7889L10.285 40.6821L1.35996 43.3639L0.0849609 43.7895L0.467461 45.0665L6.58746 65.6263L6.96996 66.9458L8.28746 66.5627L15.895 64.2216L17.2125 63.8385L16.7875 62.5615L16.0225 59.9649L26.69 57.5812C29.9678 56.8362 32.9534 55.0644 35.0625 52.3454L35.5725 51.7069L40.715 55.3251L41.82 56.1339L42.585 54.9846L67.235 19.3136L68 18.2069L66.8525 17.3981L47.685 4.07473L46.58 3.26596ZM47.26 7.0544L64.2175 18.888L54.485 32.9776C55.7334 28.9922 53.8209 24.2194 49.7675 21.3994C49.7568 21.3941 49.7781 21.3622 49.7675 21.3568C49.7568 21.3462 49.7356 21.3675 49.725 21.3568C47.3609 19.6861 44.5506 18.9891 41.99 19.2285C40.5237 19.3668 39.1478 19.8351 37.9525 20.5906L47.26 7.0544ZM52.955 15.1421C52.2112 15.1368 51.494 15.5039 51.0425 16.1637C50.32 17.2172 50.5856 18.6326 51.6375 19.3562C52.6893 20.0798 54.145 19.8138 54.8675 18.7603C55.59 17.7067 55.3243 16.2914 54.2725 15.5678C53.8793 15.2964 53.4012 15.1474 52.955 15.1421ZM42.33 21.9102C44.2106 21.7399 46.309 22.2561 48.1525 23.5703L48.195 23.6129C52.0465 26.268 53.194 30.7694 51.255 33.5735H51.2125C50.235 35.0846 48.604 35.904 46.58 35.9998C46.649 34.4408 46.0965 32.8871 44.88 31.7431C44.8693 31.7325 44.8481 31.7538 44.8375 31.7431C42.9834 29.9074 40.0934 29.5988 37.9525 31.0195C36.6562 28.6836 36.5606 26.1456 37.825 24.3365C38.7918 22.9371 40.4493 22.0805 42.33 21.9102ZM31.3225 25.4007L24.82 35.6593L24.0975 36.8511L25.2875 37.5322L29.6225 40.1288L30.43 40.6396L31.195 40.0011L38.08 34.4248C38.4306 34.3131 38.7175 34.0683 38.8875 33.7438L39.2275 33.4884C40.3112 32.5838 41.9687 32.6583 42.9675 33.6586V33.7012H43.01C44.1256 34.7228 44.2265 36.3191 43.265 37.5748L32.9375 50.6428C31.2375 52.8296 28.8043 54.3248 26.095 54.942L15.2575 57.3683L11.4325 44.5132L11.8575 44.3429L12.325 44.1726L12.58 43.7895L22.0575 29.1466C22.594 28.391 23.1465 27.9281 23.9275 27.6141C23.9593 27.6035 23.9806 27.5822 24.0125 27.5716L31.3225 25.4007ZM34.425 25.5709C33.899 27.9387 34.4303 30.5087 35.785 32.7647L30.2175 37.3194L27.88 35.9147L34.425 25.5709ZM51.765 36.9363L41.14 52.3454L37.23 49.5786L45.39 39.2774V39.2349H45.4325C45.56 39.0699 45.6662 38.8997 45.7725 38.7241C47.9825 38.7879 50.1128 38.2186 51.765 36.9363ZM8.45746 44.0449L13.8125 62.0507L8.79746 63.5831L3.44246 45.6199L8.45746 44.0449Z" fill="url(#paint0_linear_51_983)"/>
</g>
<defs>
<linearGradient id="paint0_linear_51_983" x1="34.0425" y1="3.26596" x2="34.0425" y2="66.9458" gradientUnits="userSpaceOnUse">
<stop stop-color="#FFC619"/>
<stop offset="0.520833" stop-color="#F69020"/>
<stop offset="1" stop-color="#EA422A"/>
</linearGradient>
<clipPath id="clip0_51_983">
<rect width="68" height="68.1068" fill="white" transform="translate(0 0.413982)"/>
</clipPath>
</defs>
</svg>
