<svg width="70" height="71" viewBox="0 0 70 71" fill="none" xmlns="http://www.w3.org/2000/svg">
<path d="M47.5999 1.72855C39.178 1.72855 32.2765 8.53688 32.1124 16.9336C31.303 18.2099 20.5679 35.1568 12.1187 43.6193L12.1624 43.6631C12.0476 43.7507 11.6374 43.9917 11.3749 44.6709C11.0741 45.4487 11.3147 46.7578 12.1624 47.6068L14.1312 49.5786L11.7687 51.9448C9.35147 54.3658 8.27412 57.11 8.35615 59.7007C8.43818 62.2915 9.59756 64.6687 11.3749 66.3612C14.9241 69.7462 21.1257 70.5294 25.7249 65.923L44.9312 46.6866C48.6663 42.9456 52.7515 43.7179 55.2562 46.1608C56.5085 47.3822 57.3179 49.0364 57.3562 50.8055C57.3944 52.5747 56.7218 54.5082 54.7749 56.4582L45.8937 65.3534C45.314 65.934 45.314 66.8761 45.8937 67.4567C46.4733 68.0373 47.414 68.0373 47.9937 67.4567L56.8312 58.5615C59.2483 56.1405 60.3421 53.3635 60.2874 50.7617C60.2327 48.16 59.0733 45.7719 57.3124 44.0575C55.5515 42.343 53.1179 41.2859 50.5312 41.2531C47.9444 41.2202 45.2319 42.2225 42.8749 44.5833L23.6687 63.8197C20.0812 67.4128 15.9687 66.6351 13.4312 64.2141C12.1624 63.0036 11.3421 61.3549 11.2874 59.6131C11.2327 57.8713 11.878 55.9542 13.8249 54.0043L13.9562 53.9167L16.1874 51.6819L17.2374 52.6897C18.0741 53.5278 19.228 53.8455 20.0374 53.6099C20.7429 53.4073 20.989 52.9417 21.0874 52.8212L21.1749 52.9088C29.4108 44.6545 46.6265 33.5738 47.9062 32.7522C56.2952 32.5879 63.0874 25.681 63.0874 17.2404C63.0874 8.7012 56.1202 1.72855 47.5999 1.72855ZM47.5999 4.70822C54.5288 4.70822 60.1124 10.2951 60.1124 17.2404C60.1124 20.0174 59.221 22.5753 57.7062 24.6457L40.2062 7.11825C42.2733 5.60103 44.8272 4.70822 47.5999 4.70822ZM38.0624 9.13391L55.7374 26.7929C53.5554 28.6606 50.7116 29.7725 47.5999 29.7725C40.6655 29.7725 35.0874 24.1911 35.0874 17.2404C35.0874 14.1347 36.2085 11.3194 38.0624 9.13391ZM32.6812 21.3155C34.1304 26.6121 38.3194 30.8078 43.6187 32.2264C37.9147 35.9948 26.0312 44.0848 19.2937 50.8055C19.2718 50.7782 19.2772 50.7891 19.2062 50.7179L14.1312 45.5911C20.978 38.717 28.9679 27.0065 32.6812 21.3155ZM32.4624 30.6051C32.0413 30.6051 31.5983 30.7694 31.2812 31.0871L27.5187 34.8993C26.8788 35.5402 26.8788 36.5809 27.5187 37.2217L27.6499 37.3532C28.2843 37.994 29.3288 37.994 29.9687 37.3532L33.7749 33.541C34.4147 32.9056 34.4093 31.8594 33.7749 31.2186L33.5999 31.0871C33.2827 30.7694 32.8835 30.6051 32.4624 30.6051Z" fill="url(#paint0_linear_51_971)"/>
<defs>
<linearGradient id="paint0_linear_51_971" x1="35.7196" y1="1.72855" x2="35.7196" y2="69.1403" gradientUnits="userSpaceOnUse">
<stop stop-color="#FFC619"/>
<stop offset="0.520833" stop-color="#F69020"/>
<stop offset="1" stop-color="#EA422A"/>
</linearGradient>
</defs>
</svg>
