<svg width="68" height="69" viewBox="0 0 68 69" fill="none" xmlns="http://www.w3.org/2000/svg">
<path d="M42.8399 2.57581L41.8784 3.53889L37.5168 7.9073L42.8399 13.2388L48.1631 7.9073L42.8399 2.57581ZM25.8399 5.8641C25.4793 5.86413 25.1334 6.00765 24.8783 6.2631C24.6233 6.51854 24.48 6.86498 24.4799 7.22623V14.0369C24.48 14.3982 24.6233 14.7446 24.8783 15.0001C25.1334 15.2555 25.4793 15.399 25.8399 15.3991H27.1999C28.8257 15.3991 29.1793 15.8887 29.5268 16.6707C29.8743 17.4528 29.9199 18.628 29.9199 19.4855C29.9199 20.5975 29.7853 21.7667 29.5959 22.8908C28.4004 22.469 27.2532 22.2172 26.1906 22.2097C24.9896 22.2012 23.7954 22.5388 22.942 23.3936C22.5779 23.7583 22.3339 24.1939 22.1451 24.6547L22.1212 24.6467L7.17447 62.595L46.4153 49.1385L46.4073 49.1146C46.9111 48.9242 47.3845 48.6624 47.7779 48.2686C48.7952 47.2497 49.071 45.781 48.9201 44.3125C48.825 43.3867 48.5573 42.4089 48.171 41.394C49.2448 41.3289 50.3868 41.2797 51.6799 41.2797C53.6187 41.2797 55.453 41.5145 56.6445 41.9288C57.2402 42.136 57.6599 42.3897 57.8637 42.5833C58.0675 42.7768 58.0788 42.8329 58.0788 42.9823V44.0039C58.0789 44.3652 58.2222 44.7116 58.4772 44.9671C58.7323 45.2225 59.0782 45.366 59.4388 45.3661H65.2799C65.4619 45.3661 65.6421 45.3296 65.8097 45.2587C65.9774 45.1877 66.1291 45.0838 66.2559 44.9531C66.3828 44.8223 66.4821 44.6674 66.548 44.4975C66.614 44.3276 66.6453 44.1462 66.6399 43.964C66.6399 43.964 66.5999 42.2854 66.6001 42.2667C66.6001 42.2658 66.6001 42.2649 66.6001 42.264C66.625 39.1718 64.6803 36.7752 62.281 35.3017C59.8818 33.8281 56.9699 33.1068 54.3707 33.1068C50.0692 33.1068 46.8696 34.2245 44.7285 35.3309C44.0534 34.4126 43.3095 33.4872 42.4973 32.5668C42.9823 32.4117 43.4746 32.2674 43.9503 32.1384C44.9084 31.8786 45.8141 31.6657 46.5188 31.5079C47.2236 31.3501 47.6126 31.2825 47.9665 31.1833C49.0644 30.8752 50.5631 30.4985 51.9057 29.6004C53.2484 28.7023 54.3999 27.0871 54.3999 24.934C54.3999 24.3446 54.1146 24.0167 53.9271 23.5719H54.3999C57.3074 23.5719 59.8399 21.2206 59.8399 18.1233V16.2504C59.8399 16.2504 59.8501 16.0648 59.9781 15.8566C60.106 15.6485 60.2083 15.3991 61.1999 15.3991H62.5599C62.9206 15.399 63.2665 15.2555 63.5216 15.0001C63.7766 14.7446 63.9199 14.3982 63.9199 14.0369V8.59103C63.9199 8.22978 63.7766 7.88334 63.5216 7.62789C63.2665 7.37245 62.9206 7.22893 62.5599 7.22889H60.3553C56.7406 7.22584 54.5079 8.90171 53.3135 10.4959C52.428 11.6774 52.1552 13.1375 51.9456 14.3908C51.8536 14.9404 51.872 14.9997 51.8313 15.3991H51.6799C49.3377 15.3991 47.5025 16.2494 46.386 17.5912C45.2696 18.9331 44.8799 20.6206 44.8799 22.2097V24.0587C42.6509 24.7948 40.0981 25.99 37.902 28.0706C36.6074 26.968 35.3207 25.9827 34.0584 25.1601C35.4523 22.6984 36.7199 19.3769 36.7199 15.3991C36.7199 13.0532 35.9437 10.6843 34.3187 8.87037C32.6937 7.05643 30.2037 5.8641 27.099 5.8641H27.0963H27.0778H25.8399ZM42.8399 6.42811L44.3168 7.9073L42.8399 9.3865L41.3631 7.9073L42.8399 6.42811ZM14.2799 8.02436L13.3184 8.98743L8.95682 13.3558L14.2799 18.6873L19.6031 13.3558L14.2799 8.02436ZM27.1999 8.60699C29.5719 8.63417 31.1924 9.45965 32.2946 10.6901C33.4152 11.941 33.9999 13.6585 33.9999 15.3991C33.9999 18.2351 33.1754 20.5489 32.2149 22.5423C32.3676 21.4983 32.6399 20.5751 32.6399 19.4855C32.6399 18.628 32.6856 17.0775 32.0131 15.564C31.3406 14.0505 29.6541 12.6748 27.1999 12.6748V8.60699ZM60.3526 9.95317C60.3535 9.95317 60.3544 9.95317 60.3553 9.95317H61.1999V12.6748C59.4716 12.6748 58.2139 13.5321 57.6618 14.4307C57.1097 15.3292 57.1199 16.2504 57.1199 16.2504V18.1233C57.1199 19.7936 55.9125 20.8476 54.3999 20.8476H51.6799C51.4322 20.8476 51.1891 20.9154 50.977 21.0437C50.7649 21.172 50.5918 21.3559 50.4764 21.5755C50.361 21.7951 50.3077 22.0422 50.3223 22.2899C50.3368 22.5377 50.4187 22.7767 50.559 22.9813C50.5595 22.9819 50.6651 23.1159 50.6732 23.1249C50.6814 23.134 50.6867 23.1405 50.6918 23.1462C50.7022 23.1575 50.714 23.1693 50.729 23.1861C50.759 23.2197 50.8019 23.2698 50.8538 23.3324C50.9577 23.4576 51.0955 23.6353 51.2284 23.8379C51.4942 24.2431 51.6799 24.7515 51.6799 24.934C51.6799 26.238 51.2185 26.7825 50.3943 27.3337C49.5702 27.885 48.3482 28.2472 47.2334 28.5602C47.2785 28.5475 46.6509 28.6874 45.9238 28.8502C45.1968 29.0129 44.2557 29.2348 43.241 29.5099C41.683 29.9324 40.1323 30.6106 38.6935 31.3323C40.9711 28.494 44.0983 26.9502 46.6065 26.2456C46.8923 26.1655 47.1441 25.9939 47.3234 25.7571C47.5028 25.5203 47.5999 25.2312 47.5999 24.934V22.2097C47.5999 21.0746 47.8903 20.0379 48.4738 19.3365C49.0574 18.6351 49.9422 18.1233 51.6799 18.1233H53.0399C53.3881 18.1231 53.7229 17.9892 53.9754 17.7491C54.2279 17.5091 54.3789 17.1812 54.3973 16.833C54.3973 16.833 54.4467 15.9263 54.6284 14.8404C54.8101 13.7544 55.2172 12.4884 55.4863 12.1294C55.4872 12.1294 55.4881 12.1294 55.489 12.1294C56.3349 10.9997 57.5002 9.95076 60.3526 9.95317ZM14.2799 11.8767L15.7568 13.3558L14.2799 14.835L12.8031 13.3558L14.2799 11.8767ZM61.8799 23.5719L58.4799 26.9772L61.8799 30.3826L65.2773 26.9772L61.8799 23.5719ZM8.83994 24.934L5.43994 28.3394L8.83994 31.7447L12.2373 28.3394L8.83994 24.934ZM26.1693 24.934C26.8822 24.939 27.8671 25.2 28.9982 25.6576C28.6093 27.1449 28.2346 28.2414 28.119 28.5921C28.0257 28.8754 28.0279 29.1815 28.1251 29.4634C28.2223 29.7454 28.4093 29.9876 28.6572 30.1528C28.9052 30.318 29.2004 30.3972 29.4976 30.3782C29.7948 30.3591 30.0776 30.2429 30.3024 30.0473C30.4932 29.881 30.8272 29.569 31.434 28.8768C31.7582 28.5069 32.1362 28.039 32.5337 27.504C33.6917 28.2319 34.9003 29.1143 36.109 30.1245C35.933 30.3654 35.7492 30.5924 35.5831 30.8508L32.8578 35.0942C32.6889 35.3589 32.6167 35.6739 32.6532 35.9859C32.6897 36.2979 32.8327 36.5877 33.058 36.8062C33.2833 37.0246 33.5771 37.1584 33.8897 37.1848C34.2022 37.2113 34.5142 37.1287 34.7729 36.9511L38.8635 34.1231C39.1035 33.9572 39.4175 33.7855 39.772 33.615C40.7475 34.6673 41.636 35.728 42.4123 36.7702C41.9775 37.105 41.6377 37.4008 41.5729 37.4646C41.572 37.4655 41.5711 37.4664 41.5703 37.4673L38.4837 40.5214C38.2615 40.7414 38.1217 41.0313 38.0878 41.3424C38.0539 41.6534 38.1279 41.9667 38.2974 42.2295C38.467 42.4923 38.7217 42.6887 39.0188 42.7856C39.3158 42.8825 39.6371 42.874 39.9287 42.7615C39.9287 42.7615 41.7139 42.0827 45.3342 41.6441C45.8331 42.7847 46.1353 43.8063 46.216 44.5919C46.3164 45.5688 46.1227 46.0741 45.8548 46.3424C45.7501 46.4472 45.6 46.5348 45.4112 46.6032L45.2731 46.651C45.0317 46.7142 44.7267 46.7444 44.3221 46.7202C43.4733 46.6695 42.3053 46.3505 40.9832 45.7492C38.3391 44.5465 35.0868 42.2465 32.021 39.1753C28.9552 36.1039 26.6584 32.8474 25.4574 30.199C24.857 28.8748 24.5386 27.7021 24.4879 26.8522C24.4627 26.4298 24.4961 26.1105 24.5649 25.8652C24.573 25.8366 24.5852 25.8172 24.5942 25.7907C24.6633 25.5861 24.755 25.4301 24.8651 25.3198C25.0888 25.0957 25.4554 24.9289 26.1693 24.934ZM22.6896 30.6273C22.7841 30.8597 22.8718 31.0902 22.9792 31.327C24.3683 34.3904 26.8371 37.8347 30.0979 41.1014C33.3589 44.3682 36.7983 46.8401 39.857 48.2313C39.9802 48.2874 40.0989 48.3304 40.2209 48.383L11.8654 58.1068L22.6896 30.6273ZM54.3707 35.8311C56.4418 35.8311 58.982 36.4709 60.8599 37.6242C62.7379 38.7776 63.896 40.2734 63.8801 42.2401C63.879 42.3449 63.8851 42.4756 63.8881 42.6418H60.6474C60.5422 41.8667 60.262 41.1059 59.7363 40.6066C59.1228 40.0237 58.3683 39.6462 57.5343 39.3562C55.8663 38.7761 53.8212 38.5554 51.6799 38.5554C48.1798 38.5554 45.7852 38.9146 43.7085 39.2551C44.0205 38.9567 47.3746 35.8311 54.3707 35.8311ZM52.3599 51.6127L51.3984 52.5758L47.0368 56.9442L52.3599 62.2757L57.6831 56.9442L52.3599 51.6127ZM52.3599 55.465L53.8368 56.9442L52.3599 58.4234L50.8831 56.9442L52.3599 55.465Z" fill="url(#paint0_linear_51_989)"/>
<defs>
<linearGradient id="paint0_linear_51_989" x1="36.0402" y1="2.57581" x2="36.0402" y2="62.595" gradientUnits="userSpaceOnUse">
<stop stop-color="#FFC619"/>
<stop offset="0.520833" stop-color="#F69020"/>
<stop offset="1" stop-color="#EA422A"/>
</linearGradient>
</defs>
</svg>
